# xmcd
#
# Track frame offsets:
#	150
#	17773
#	47884
#	73434
#	94425
#	114932
#	139256
#	173580
#	195588
#	223681
#	243996
#	273992
#	301923
#
# Disc length: 4140 seconds
#
# Revision: 0
# Processed by: cddbd v1.5.2PL0 Copyright (c) Steve Scherf et al.
# Submitted via: SynApp - FreeCDDB Version: 2.2
#
DISCID=be102a0d
DTITLE=Si-Lim-Tau - Si-Lim-Tau
DYEAR=2007
DGENRE=A capella
TTITLE0=Taichi Masuda - Si-Lim-Tau
TTITLE1=Accadia - Blind Visions
TTITLE2=Solar Stone - Jabberwock (Chillout Mix)
TTITLE3=Dew - Nair
TTITLE4=Track08 - Track08
TTITLE5=En Voice - Burning Soul
TTITLE6=Celtic Cross - Hicksville
TTITLE7=Amethystium - Shibumi
TTITLE8=Koan - Sweet Dream
TTITLE9=Schiller - Drifting and Dreaming (live)
TTITLE10=Side Liner - Screaming Tears
TTITLE11=Xstasia - Sweetness (Katcha Mix)
TTITLE12=Norihiko Hibino - Trusting Peace
EXTD=
EXTT0=
EXTT1=
EXTT2=
EXTT3=
EXTT4=
EXTT5=
EXTT6=
EXTT7=
EXTT8=
EXTT9=
EXTT10=
EXTT11=
EXTT12=
PLAYORDER=
